<svg width="1920" height="1080" viewBox="0 0 1920 1080" fill="none" xmlns="http://www.w3.org/2000/svg">
<g opacity="0.4" clip-path="url(#clip0_137_2)">
<g opacity="0.6">
<mask id="path-1-inside-1_137_2" fill="white">
<path d="M-10.5586 383.304C376.925 383.304 691.043 697.422 691.043 1084.91C691.043 1472.39 376.925 1786.51 -10.5586 1786.51C-11.0291 1786.51 -11.4994 1786.5 -11.9697 1786.5C326.424 1785.74 600.508 1511.18 600.508 1172.61C600.508 833.558 325.655 558.705 -13.3936 558.705C-352.442 558.705 -627.295 833.558 -627.295 1172.61C-627.295 1497.91 -374.274 1764.11 -54.2969 1785.16C-421.407 1762.58 -712.16 1457.7 -712.16 1084.91C-712.16 697.422 -398.042 383.304 -10.5586 383.304Z"/>
</mask>
<path d="M-10.5586 383.304C376.925 383.304 691.043 697.422 691.043 1084.91C691.043 1472.39 376.925 1786.51 -10.5586 1786.51C-11.0291 1786.51 -11.4994 1786.5 -11.9697 1786.5C326.424 1785.74 600.508 1511.18 600.508 1172.61C600.508 833.558 325.655 558.705 -13.3936 558.705C-352.442 558.705 -627.295 833.558 -627.295 1172.61C-627.295 1497.91 -374.274 1764.11 -54.2969 1785.16C-421.407 1762.58 -712.16 1457.7 -712.16 1084.91C-712.16 697.422 -398.042 383.304 -10.5586 383.304Z" fill="#1E1E1E"/>
<path d="M-10.5586 383.304L-10.5586 382.044L-10.5586 382.044L-10.5586 383.304ZM691.043 1084.91L692.303 1084.91L692.303 1084.91L691.043 1084.91ZM-10.5586 1786.51L-10.5586 1787.77H-10.5586L-10.5586 1786.51ZM-11.9697 1786.5L-11.9726 1785.24L-11.9722 1787.76L-11.9697 1786.5ZM600.508 1172.61L601.768 1172.61V1172.61L600.508 1172.61ZM-13.3936 558.705L-13.3936 557.445L-13.3936 557.445L-13.3936 558.705ZM-627.295 1172.61L-628.555 1172.61L-628.555 1172.61L-627.295 1172.61ZM-54.2969 1785.16L-54.3742 1786.42L-54.2142 1783.91L-54.2969 1785.16ZM-712.16 1084.91L-713.42 1084.91V1084.91L-712.16 1084.91ZM-10.5586 383.304L-10.5586 384.564C376.229 384.564 689.783 698.118 689.783 1084.91L691.043 1084.91L692.303 1084.91C692.303 696.726 377.621 382.044 -10.5586 382.044L-10.5586 383.304ZM691.043 1084.91L689.783 1084.91C689.783 1471.69 376.23 1785.25 -10.5586 1785.25L-10.5586 1786.51L-10.5586 1787.77C377.621 1787.77 692.303 1473.09 692.303 1084.91L691.043 1084.91ZM-10.5586 1786.51L-10.5586 1785.25C-11.0338 1785.25 -11.4798 1785.24 -11.9672 1785.24L-11.9697 1786.5L-11.9722 1787.76C-11.5191 1787.76 -11.0244 1787.77 -10.5586 1787.77L-10.5586 1786.51ZM-11.9697 1786.5L-11.9669 1787.76C327.121 1786.99 601.768 1511.88 601.768 1172.61L600.508 1172.61L599.248 1172.61C599.248 1510.49 325.727 1784.48 -11.9726 1785.24L-11.9697 1786.5ZM600.508 1172.61L601.768 1172.61C601.768 832.863 326.351 557.445 -13.3936 557.445L-13.3936 558.705L-13.3936 559.965C324.959 559.965 599.248 834.254 599.248 1172.61L600.508 1172.61ZM-13.3936 558.705L-13.3936 557.445C-353.138 557.445 -628.555 832.863 -628.555 1172.61L-627.295 1172.61L-626.035 1172.61C-626.035 834.254 -351.746 559.965 -13.3936 559.965L-13.3936 558.705ZM-627.295 1172.61L-628.555 1172.61C-628.555 1498.58 -375.015 1765.33 -54.3796 1786.42L-54.2969 1785.16L-54.2142 1783.91C-373.534 1762.9 -626.035 1497.24 -626.035 1172.61L-627.295 1172.61ZM-54.2969 1785.16L-54.2195 1783.91C-420.669 1761.37 -710.9 1457.03 -710.9 1084.91L-712.16 1084.91L-713.42 1084.91C-713.42 1458.37 -422.145 1763.8 -54.3742 1786.42L-54.2969 1785.16ZM-712.16 1084.91L-710.9 1084.91C-710.9 698.118 -397.346 384.564 -10.5586 384.564L-10.5586 383.304L-10.5586 382.044C-398.738 382.044 -713.42 696.726 -713.42 1084.91L-712.16 1084.91Z" fill="#6B6B6B" mask="url(#path-1-inside-1_137_2)"/>
</g>
<g opacity="0.6">
<mask id="path-3-inside-2_137_2" fill="white">
<path d="M1242.8 -354.957C1049.06 -19.3863 1164.03 409.706 1499.6 603.448C1835.18 797.19 2264.27 682.215 2458.01 346.644C2458.25 346.237 2458.48 345.827 2458.71 345.42C2288.85 638.093 1914.04 738.18 1620.82 568.893C1327.2 399.369 1226.59 23.9119 1396.12 -269.713C1565.64 -563.337 1941.1 -663.94 2234.72 -494.416C2516.45 -331.764 2620.47 20.4602 2478.71 308.093C2642.71 -21.1233 2524.06 -425.364 2201.21 -611.761C1865.64 -805.503 1436.54 -690.528 1242.8 -354.957Z"/>
</mask>
<path d="M1242.8 -354.957C1049.06 -19.3863 1164.03 409.706 1499.6 603.448C1835.18 797.19 2264.27 682.215 2458.01 346.644C2458.25 346.237 2458.48 345.827 2458.71 345.42C2288.85 638.093 1914.04 738.18 1620.82 568.893C1327.2 399.369 1226.59 23.9119 1396.12 -269.713C1565.64 -563.337 1941.1 -663.94 2234.72 -494.416C2516.45 -331.764 2620.47 20.4602 2478.71 308.093C2642.71 -21.1233 2524.06 -425.364 2201.21 -611.761C1865.64 -805.503 1436.54 -690.528 1242.8 -354.957Z" fill="#1E1E1E"/>
<path d="M1499.6 603.448L1498.97 604.539L1498.97 604.539L1499.6 603.448ZM2458.71 345.42L2457.62 344.787L2459.8 346.048L2458.71 345.42ZM1620.82 568.893L1620.19 569.985L1620.19 569.985L1620.82 568.893ZM1396.12 -269.713L1395.03 -270.343L1395.03 -270.343L1396.12 -269.713ZM2234.72 -494.416L2235.35 -495.507L2235.35 -495.507L2234.72 -494.416ZM2478.71 308.093L2479.84 308.655L2477.58 307.536L2478.71 308.093ZM2201.21 -611.761L2201.84 -612.852L2201.84 -612.852L2201.21 -611.761ZM1242.8 -354.957L1243.89 -354.327C1050.5 -19.3589 1165.27 408.963 1500.23 602.357L1499.6 603.448L1498.97 604.539C1162.8 410.45 1047.62 -19.4136 1241.71 -355.587L1242.8 -354.957ZM1499.6 603.448L1500.23 602.357C1835.2 795.751 2263.53 680.983 2456.92 346.014L2458.01 346.644L2459.1 347.274C2265.01 683.448 1835.15 798.629 1498.97 604.539L1499.6 603.448ZM2458.01 346.644L2456.92 346.014C2457.16 345.603 2457.38 345.215 2457.62 344.792L2458.71 345.42L2459.8 346.048C2459.58 346.44 2459.33 346.871 2459.1 347.274L2458.01 346.644ZM2458.71 345.42L2459.8 346.052C2289.59 639.327 1914.01 739.619 1620.19 569.985L1620.82 568.893L1621.45 567.802C1914.06 736.742 2288.11 636.86 2457.62 344.787L2458.71 345.42ZM1620.82 568.893L1620.19 569.985C1325.97 400.112 1225.16 23.8846 1395.03 -270.343L1396.12 -269.713L1397.21 -269.083C1228.03 23.9393 1328.43 398.626 1621.45 567.802L1620.82 568.893ZM1396.12 -269.713L1395.03 -270.343C1564.9 -564.57 1941.13 -665.379 2235.35 -495.507L2234.72 -494.416L2234.09 -493.325C1941.07 -662.501 1566.39 -562.104 1397.21 -269.083L1396.12 -269.713ZM2234.72 -494.416L2235.35 -495.507C2517.65 -332.521 2621.9 20.4258 2479.85 308.65L2478.71 308.093L2477.58 307.536C2619.05 20.4946 2515.24 -331.007 2234.09 -493.325L2234.72 -494.416ZM2478.71 308.093L2477.59 307.532C2641.29 -21.0929 2522.85 -424.608 2200.58 -610.67L2201.21 -611.761L2201.84 -612.852C2525.27 -426.12 2644.14 -21.1538 2479.84 308.655L2478.71 308.093ZM2201.21 -611.761L2200.58 -610.67C1865.61 -804.064 1437.29 -689.296 1243.89 -354.327L1242.8 -354.957L1241.71 -355.587C1435.8 -691.761 1865.66 -806.942 2201.84 -612.852L2201.21 -611.761Z" fill="#6B6B6B" mask="url(#path-3-inside-2_137_2)"/>
</g>
</g>
<defs>
<clipPath id="clip0_137_2">
<rect width="1920" height="1080" fill="white"/>
</clipPath>
</defs>
</svg>
